<svg width="19" height="19" viewBox="0 0 19 19" fill="none" xmlns="http://www.w3.org/2000/svg">
<path d="M9.49998 1.58333C5.13473 1.58333 1.58331 5.13475 1.58331 9.5C1.58331 13.8653 5.13473 17.4167 9.49998 17.4167C13.8652 17.4167 17.4166 13.8653 17.4166 9.5C17.4166 5.13475 13.8652 1.58333 9.49998 1.58333ZM9.49998 15.8333C6.00794 15.8333 3.16665 12.992 3.16665 9.5C3.16665 6.00796 6.00794 3.16667 9.49998 3.16667C12.992 3.16667 15.8333 6.00796 15.8333 9.5C15.8333 12.992 12.992 15.8333 9.49998 15.8333Z" fill="#BBBBBB"/>
<path d="M10.2916 5.54167H8.70831V9.82775L11.3153 12.4347L12.4347 11.3153L10.2916 9.17225V5.54167Z" fill="#BBBBBB"/>
</svg>
