<svg width="177" height="15" viewBox="0 0 177 15" fill="none" xmlns="http://www.w3.org/2000/svg">
<path d="M94.8842 4.79375e-06H98.5961L102.246 9.82496H102.287L105.999 4.79375e-06H109.482L103.392 14.9915H100.786L94.8842 4.79375e-06ZM114.32 4.79375e-06H117.573V14.9915H114.32V4.79375e-06ZM123.579 4.79375e-06H133.609V3.04913H126.832V5.84416H133.234V8.89328H126.832V11.9424H133.985V14.9915H123.579V4.79375e-06ZM146.518 4.79375e-06H151.398C152.532 0.00203735 153.663 0.144245 154.763 0.423494C155.766 0.654806 156.713 1.08671 157.549 1.69396C158.353 2.31029 159 3.11339 159.435 4.03586C159.938 5.13114 160.185 6.32981 160.156 7.53812C160.177 8.64715 159.945 9.74605 159.476 10.7482C159.042 11.6493 158.42 12.444 157.654 13.0774C156.866 13.7155 155.968 14.1994 155.005 14.5045C153.974 14.8368 152.897 15.0011 151.815 14.9915H146.514L146.518 4.79375e-06ZM149.775 11.9424H151.444C152.145 11.9476 152.845 11.8694 153.529 11.7095C154.131 11.5693 154.699 11.3056 155.197 10.9345C155.679 10.5646 156.061 10.0784 156.311 9.52005C156.603 8.84263 156.746 8.1082 156.728 7.36872C156.74 6.70611 156.597 6.05001 156.311 5.45455C156.054 4.92589 155.68 4.46491 155.218 4.10785C154.732 3.7428 154.183 3.47281 153.6 3.31169C152.965 3.13508 152.31 3.04675 151.652 3.04913H149.734L149.775 11.9424ZM164.844 4.79375e-06H170.349C170.995 0.00101205 171.641 0.0462871 172.281 0.135521C172.887 0.217316 173.475 0.403497 174.02 0.686058C174.529 0.953968 174.96 1.35255 175.271 1.84218C175.617 2.43685 175.784 3.1215 175.751 3.81141C175.781 4.58 175.534 5.3334 175.054 5.92886C174.564 6.49926 173.923 6.91395 173.206 7.1231V7.16545C173.669 7.23027 174.117 7.37342 174.533 7.58894C174.918 7.78397 175.264 8.04958 175.555 8.37239C175.843 8.69474 176.065 9.07184 176.209 9.48193C176.365 9.91618 176.442 10.3751 176.439 10.8371C176.464 11.5329 176.29 12.2213 175.938 12.819C175.61 13.3384 175.167 13.7733 174.645 14.0895C174.096 14.4246 173.493 14.6609 172.864 14.7883C172.216 14.9275 171.555 14.9985 170.892 15H164.844V4.79375e-06ZM168.081 5.99238H170.437C170.687 5.9919 170.936 5.96349 171.179 5.90768C171.412 5.85637 171.634 5.76314 171.834 5.63241C172.031 5.50566 172.193 5.33094 172.306 5.12423C172.428 4.88974 172.488 4.62713 172.481 4.36195C172.492 4.09095 172.424 3.8226 172.285 3.5912C172.156 3.39002 171.98 3.22532 171.772 3.11265C171.549 2.9937 171.31 2.91082 171.063 2.86703C170.808 2.82055 170.55 2.79646 170.291 2.79504H168.081V5.99238ZM168.081 12.1965H171C171.257 12.1951 171.512 12.1667 171.763 12.1118C172.012 12.059 172.248 11.9583 172.46 11.8154C172.67 11.6735 172.845 11.4853 172.973 11.2648C173.115 11.0069 173.183 10.7133 173.169 10.4178C173.181 10.1137 173.09 9.81468 172.91 9.57087C172.734 9.35571 172.507 9.18837 172.251 9.08385C171.985 8.969 171.704 8.89067 171.417 8.85093C171.134 8.81009 170.848 8.78887 170.562 8.78741H168.081V12.1965ZM85.083 14.9619H85.5C87.4535 14.9619 89.327 14.1739 90.7083 12.7714C92.0896 11.3688 92.8656 9.46657 92.8656 7.48306C92.8656 5.49917 92.0897 3.59646 90.7085 2.19324C89.3273 0.790015 87.4539 0.00112754 85.5 4.79375e-06H85.1205C84.152 -0.00110828 83.1928 0.191625 82.2977 0.567186C81.4026 0.942746 80.5892 1.49377 79.904 2.18875C79.2187 2.88372 78.6751 3.70902 78.3043 4.61746C77.9334 5.5259 77.7425 6.49966 77.7425 7.48306C77.7425 9.46657 78.5185 11.3688 79.8998 12.7714C81.2811 14.1739 83.1545 14.9619 85.108 14.9619H85.083ZM4.21244 2.92208H0V4.79375e-06H11.6781V2.92208H7.46561V14.9915H4.21244V2.92208ZM16.2659 4.79375e-06H19.519V5.59007H25.8168V4.79375e-06H29.07V14.9915H25.8168V8.51214H19.4982V14.9915H16.2659V4.79375e-06ZM33.4493 4.79375e-06H43.459V3.04913H36.7025V5.84416H43.1045V8.89328H36.7025V11.9424H43.8553V14.9915H33.4284L33.4493 4.79375e-06ZM56.3883 4.79375e-06H61.3098L64.7089 9.78261H64.7506L68.1706 4.79375e-06H73.0713V14.9915H69.8181V3.49379H69.7764L65.8976 14.9915H63.416L59.6623 3.49379H59.6415V14.9915H56.3883V4.79375e-06Z" fill="white"/>
</svg>
