<svg width="17" height="15" viewBox="0 0 17 15" fill="none" xmlns="http://www.w3.org/2000/svg">
<path d="M8.39029 1.61071C7.53987 0.828747 6.42674 0.394751 5.27146 0.394714C4.65998 0.395351 4.05466 0.516907 3.49033 0.752387C2.92601 0.987867 2.41383 1.33262 1.98326 1.76681C0.146775 3.6111 0.147555 6.49579 1.98482 8.33227L7.70736 14.0548C7.84004 14.2882 8.09604 14.4388 8.39029 14.4388C8.5111 14.4376 8.62996 14.4081 8.73732 14.3527C8.84467 14.2973 8.93753 14.2174 9.00843 14.1196L14.7957 8.33227C16.633 6.49501 16.633 3.6111 14.7942 1.76369C14.3638 1.3303 13.8521 0.986243 13.2883 0.751306C12.7245 0.516369 12.1199 0.395182 11.5091 0.394714C10.3539 0.394903 9.24079 0.828878 8.39029 1.61071ZM13.6906 2.8673C14.9105 4.09345 14.9113 6.00876 13.6921 7.22867L8.39029 12.5305L3.08843 7.22867C1.86931 6.00876 1.87009 4.09345 3.08687 2.87042C3.68004 2.28037 4.45585 1.95569 5.27146 1.95569C6.08707 1.95569 6.85975 2.28037 7.44824 2.86886L7.83848 3.2591C7.9109 3.33165 7.99691 3.3892 8.0916 3.42847C8.18628 3.46773 8.28778 3.48794 8.39029 3.48794C8.49279 3.48794 8.59429 3.46773 8.68897 3.42847C8.78366 3.3892 8.86967 3.33165 8.94209 3.2591L9.33233 2.86886C10.5124 1.6911 12.512 1.69423 13.6906 2.8673Z" fill="white"/>
</svg>
