<svg width="21" height="22" viewBox="0 0 21 22" fill="none" xmlns="http://www.w3.org/2000/svg">
<path fill-rule="evenodd" clip-rule="evenodd" d="M10.8923 0C5.33524 0 0.815109 4.52013 0.815109 10.0772C0.815109 12.6989 1.82125 15.0902 3.46774 16.8848L0.227947 20.1178C-0.0752563 20.421 -0.076292 20.9115 0.226913 21.2147C0.377998 21.3679 0.577721 21.4434 0.776407 21.4434C0.97406 21.4434 1.17275 21.3679 1.32487 21.2168L4.60376 17.947C6.3286 19.3284 8.5156 20.1553 10.8923 20.1553C16.4493 20.1553 20.9705 15.6342 20.9705 10.0772C20.9705 4.52013 16.4493 0 10.8923 0ZM10.8923 1.55224C15.5935 1.55224 19.4182 5.37593 19.4182 10.0772C19.4182 14.7784 15.5935 18.6031 10.8923 18.6031C6.19208 18.6031 2.36735 14.7784 2.36735 10.0772C2.36735 5.37593 6.19208 1.55224 10.8923 1.55224Z" fill="white" fill-opacity="0.5"/>
</svg>
